<svg width="18" height="18" viewBox="0 0 18 18" fill="none" xmlns="http://www.w3.org/2000/svg">
<path d="M0.75 3V7.5H5.25" stroke="#252525" stroke-width="1.5" stroke-linecap="round" stroke-linejoin="round"/>
<path d="M17.25 15V10.5H12.75" stroke="#252525" stroke-width="1.5" stroke-linecap="round" stroke-linejoin="round"/>
<path d="M15.3675 6.74993C14.9871 5.67502 14.3407 4.71399 13.4884 3.9565C12.6361 3.19901 11.6059 2.66976 10.4938 2.41813C9.38167 2.1665 8.22393 2.20069 7.12861 2.51751C6.03328 2.83434 5.03606 3.42347 4.23 4.22993L0.75 7.49993M17.25 10.4999L13.77 13.7699C12.9639 14.5764 11.9667 15.1655 10.8714 15.4824C9.77607 15.7992 8.61833 15.8334 7.50621 15.5817C6.3941 15.3301 5.36385 14.8009 4.5116 14.0434C3.65935 13.2859 3.01288 12.3248 2.6325 11.2499" stroke="#252525" stroke-width="1.5" stroke-linecap="round" stroke-linejoin="round"/>
</svg>
